<svg width="24" height="24" viewBox="0 0 24 24" fill="none" xmlns="http://www.w3.org/2000/svg">
<path d="M4.01068e-05 12.0275C-0.00756741 14.9753 1.06732 17.8218 3.01782 20.0191C4.96832 22.2164 7.65657 23.6091 10.5652 23.9293C13.4738 24.2495 16.3971 23.4745 18.7726 21.7534C21.148 20.0324 22.8077 17.4869 23.4321 14.607H20.2914C20.1835 14.629 20.0841 14.6815 20.0047 14.7583C19.7759 14.9923 19.5701 15.248 19.3902 15.5219C19.34 15.6103 19.2658 15.6825 19.1763 15.73C19.0868 15.7775 18.9858 15.7984 18.885 15.7901C18.6392 15.7901 18.3866 15.7901 18.1203 15.8245V16.8563C18.3115 16.9182 18.5163 16.9733 18.7143 17.0489C18.8168 17.0864 18.9023 17.16 18.955 17.2561C19.0077 17.3523 19.0241 17.4644 19.001 17.5717C19.001 17.8262 19.001 18.0876 18.7279 18.2114C18.071 18.4792 17.3366 18.4792 16.6797 18.2114C16.5823 18.1757 16.5007 18.1063 16.4494 18.0156C16.3982 17.9249 16.3806 17.8188 16.3998 17.7162C16.3998 17.4548 16.3451 17.1659 16.6729 17.0283C16.8777 16.9526 17.0825 16.8907 17.2942 16.8219V15.8589L13.9214 16.0171V16.8632L14.0101 16.9045C14.7475 17.1246 14.6314 17.2622 14.6041 17.9294C14.6041 18.0463 14.4129 18.2046 14.2764 18.2665C13.7938 18.4581 13.257 18.4581 12.7743 18.2665C12.3647 18.1289 12.4261 17.7918 12.4125 17.4754C12.4055 17.3565 12.4419 17.2391 12.5149 17.1454C12.5878 17.0517 12.6922 16.988 12.8085 16.9664C12.9068 16.9268 13.0071 16.8924 13.1089 16.8632V16.0378L9.82485 16.1891V16.877L10.0433 16.9389C10.8012 17.1384 10.6851 17.3103 10.6578 17.9088C10.6578 18.0257 10.5076 18.177 10.3915 18.2321C10.0805 18.3649 9.74617 18.4333 9.40837 18.4333C9.07057 18.4333 8.73622 18.3649 8.4252 18.2321C8.09066 18.1014 8.15893 17.8056 8.14528 17.5442C8.13074 17.4411 8.15295 17.3362 8.20795 17.248C8.26295 17.1599 8.34718 17.0942 8.44569 17.0627C8.63003 16.987 8.81437 16.9389 9.01237 16.877V16.2579L5.03875 16.4505V7.65262L9.01237 7.84522V7.22614C8.81437 7.16423 8.63003 7.11608 8.44569 7.04041C8.34718 7.00891 8.26295 6.94324 8.20795 6.85509C8.15295 6.76693 8.13074 6.66199 8.14528 6.5589C8.14528 6.29063 8.09066 5.99485 8.4252 5.87103C8.73582 5.73667 9.07033 5.66738 9.40837 5.66738C9.74641 5.66738 10.0809 5.73667 10.3915 5.87103C10.5076 5.92606 10.6578 6.07739 10.6578 6.18745C10.6578 6.79278 10.8012 6.96475 10.0433 7.16423L9.82485 7.22614V7.91401L13.1089 8.06534V7.23989L12.8085 7.13671C12.6922 7.11511 12.5878 7.05145 12.5149 6.9577C12.4419 6.86396 12.4055 6.74659 12.4125 6.62769C12.4125 6.30439 12.3647 5.97421 12.7743 5.83664C13.257 5.645 13.7938 5.645 14.2764 5.83664C14.4129 5.89854 14.5973 6.05676 14.6041 6.17369C14.6041 6.86156 14.7475 6.97162 14.0101 7.19862L13.9214 7.23989V8.08597L17.2942 8.24419V7.21238C17.0825 7.14359 16.8777 7.08168 16.6729 7.00602C16.3451 6.88908 16.4134 6.60017 16.3998 6.31815C16.3806 6.21556 16.3982 6.10943 16.4494 6.01871C16.5007 5.928 16.5823 5.85859 16.6797 5.82288C17.3366 5.55516 18.071 5.55516 18.7279 5.82288C19.0352 5.9467 18.9942 6.20809 19.001 6.4626C19.0241 6.56994 19.0077 6.68207 18.955 6.77819C18.9023 6.87432 18.8168 6.94793 18.7143 6.98538L18.1203 7.17798V8.20979C18.3866 8.20979 18.6392 8.25106 18.885 8.20979C18.9858 8.20156 19.0868 8.22241 19.1763 8.26992C19.2658 8.31743 19.34 8.38963 19.3902 8.47806C19.5701 8.75195 19.7759 9.00765 20.0047 9.2416C20.0859 9.3159 20.1846 9.368 20.2914 9.39293H23.4321C22.8078 6.5136 21.1487 3.96859 18.7739 2.24755C16.3992 0.526505 13.4767 -0.248975 10.5686 0.0703076C7.66049 0.38959 4.97232 1.78108 3.02128 3.97705C1.07023 6.17303 -0.00586277 9.01834 4.01068e-05 11.9656V12.0275Z" fill="white"/>
</svg>
